<?xml version="1.0"?>
<svg xmlns="http://www.w3.org/2000/svg" viewBox="0 0 512 512" width="512px" height="512px" class=""><g><g id="Outline"><path d="M300,136a12,12,0,1,0-12-12A12.014,12.014,0,0,0,300,136Z" data-original="#000000" class="active-path" data-old_color="#000000" fill="#686F7A"/><path d="M372,136a12,12,0,1,0-12-12A12.014,12.014,0,0,0,372,136Z" data-original="#000000" class="active-path" data-old_color="#000000" fill="#686F7A"/><path d="M312,176h16.934a115.032,115.032,0,0,0,33.385-4.9l-4.638-15.313A99.062,99.062,0,0,1,328.934,160H312Z" data-original="#000000" class="active-path" data-old_color="#000000" fill="#686F7A"/><path d="M24,496H184a7.994,7.994,0,0,0,3.578-.845l8.709-4.354A39.718,39.718,0,0,0,216,496h24a8.024,8.024,0,0,0,1.65-.172l86.35-18.2V496h16V477.607l86.349,18.221A8.034,8.034,0,0,0,432,496h24a40.9,40.9,0,0,0,24-8.087V496h16V329.6a56.379,56.379,0,0,0-47.894-55.414l-51.328-9.441L384,245.578V215.966A79.772,79.772,0,0,0,415.6,160h.4a32,32,0,0,0,0-64c.826-.03-2.032-17.733-2.317-18.975a74.269,74.269,0,0,0-5.232-14.888C407.458,36.53,386.111,16,360,16H264a8,8,0,0,0-8,8v8a39.814,39.814,0,0,0,9.629,25.987,74.775,74.775,0,0,0-3.561,7.466A82.789,82.789,0,0,0,256,96a32,32,0,0,0,0,64h.4A79.76,79.76,0,0,0,288,215.967v29.611l-13,19.492-55,15A56.412,56.412,0,0,0,176,334.8V336h-8C84.187,336,16,404.187,16,488A8,8,0,0,0,24,496Zm45.583-16a120.666,120.666,0,0,1,31-63.62l12.856,6.428c-.553.6-1.113,1.189-1.656,1.8A137.708,137.708,0,0,0,81.739,480Zm56.154-68.933-12.625-6.312A120.653,120.653,0,0,1,180.1,378.421l1.757-.125a35.456,35.456,0,0,1-12.965,8.1A137.61,137.61,0,0,0,125.737,411.067ZM130.387,480a149.109,149.109,0,0,1,32.391-32.524l11.672,5.836L134.843,480Zm59.3-36.956L178.7,437.55a117.307,117.307,0,0,1,35.314-12.05l-2.052,2.535ZM239.166,480H217.889l32-16h29.28l17.978,3.775ZM480,456a23.938,23.938,0,0,1-15.322,22.281l-.131.052A22.928,22.928,0,0,1,456,480H432.835l-151.19-31.829A7.975,7.975,0,0,0,280,448H262.13l16.73-27.884a7.991,7.991,0,0,0,1.13-4.093L480,431.407ZM336,232a79.6,79.6,0,0,0,32-6.682v17.1a99.9,99.9,0,0,1-64,0v-17.1A79.593,79.593,0,0,0,336,232ZM480,415.359,432.611,411.7l-24.538-1.882,27.087-11.593L449.647,392H480ZM424,385.6l-33.933,14.523L344,403.679V384h80Zm0-17.6H344V294.533c3.414-.224,6.818-.6,10.2-1.114L424,355.588Zm-80-89.507V263.388a114.857,114.857,0,0,0,28.84-5.7L380.383,269A104.886,104.886,0,0,1,344,278.493Zm-16-15.105v15.105a104.886,104.886,0,0,1-36.383-9.5l7.543-11.314A114.857,114.857,0,0,0,328,263.388Zm0,31.145V368H248V355.6l70.027-62.143C321.338,293.947,324.665,294.314,328,294.533ZM328,384v19.664l-9.525-.759c-.09-.007-.2-.013-.3-.017l-36.242-2.764-8.986-3.851A79.578,79.578,0,0,0,264.988,384Zm117.353-94.052c.1.018.195.034.293.049A40.293,40.293,0,0,1,480,329.6V376H448a8,8,0,0,0-3.16.65L440,378.732V348.667L373.243,288.95a119.894,119.894,0,0,0,20.11-8.567ZM331.845,56l-19.2-24h19.51l19.2,24Zm66.21,24.749c.706,3.014,1.221,6.077,1.628,9.11A76.013,76.013,0,0,1,381.965,72h13.348A57.758,57.758,0,0,1,398.055,80.749ZM432,128a16.019,16.019,0,0,1-16,16V112A16.018,16.018,0,0,1,432,128ZM391.472,56H371.845l-19.2-24H360A32.472,32.472,0,0,1,391.472,56ZM292.155,32l19.2,24H296a24.027,24.027,0,0,1-24-24ZM272.362,89.422a62.513,62.513,0,0,1,4.483-17.834c.509-1.245,1.061-2.449,1.64-3.635a39.68,39.68,0,0,0,11.846,3.638A75.963,75.963,0,0,1,272.314,89.86l.038-.335C272.355,89.491,272.358,89.457,272.362,89.422ZM244.7,139.3A15.986,15.986,0,0,1,256,112v32A16.108,16.108,0,0,1,244.7,139.3ZM272,152V108.911A91.9,91.9,0,0,0,308.821,72h54.358A91.9,91.9,0,0,0,400,108.911V152a64,64,0,0,1-128,0ZM192,334.8a40.323,40.323,0,0,1,31.619-39.143c.137-.03.272-.062.405-.1l54.961-14.989a119.9,119.9,0,0,0,19.949,8.436L232,348v5.578l-9.344-14.016A8,8,0,0,0,216,336H192ZM168,352h43.719l13.625,20.437c1.361,2.043,3.472,2.915,5.575,3.967a63.64,63.64,0,0,1,32.457,38.421l-21.037,35.061L182.111,480H163.476L221.9,440.634a8.005,8.005,0,0,0,1.747-1.6l14.572-18A8,8,0,0,0,232,408c-47.115,0-92.043,26.831-121,72H98.419a121.324,121.324,0,0,1,75.76-78.5,53.348,53.348,0,0,0,30.863-29.144,8,8,0,0,0-7.9-11.187l-18.185,1.3A136.541,136.541,0,0,0,53.419,480H32.232C36.39,408.72,95.7,352,168,352Z" data-original="#000000" class="active-path" data-old_color="#000000" fill="#686F7A"/></g></g> </svg>
