<?xml version="1.0"?>
<svg xmlns="http://www.w3.org/2000/svg" id="Layer_5" enable-background="new 0 0 64 64" height="512px" viewBox="0 0 64 64" width="512px" class=""><g><path d="m59.271 25.075c.326-4.332.954-8.684 1.865-12.938l.296-1.38c.364-.846.568-1.778.568-2.757 0-3.86-3.14-7-7-7h-7c-3.86 0-7 3.14-7 7l1.346 6.387c.818 3.817 1.323 7.723 1.533 11.625-1.046.065-1.879.927-1.879 1.988v2c0 1.088.873 1.971 1.955 1.995-.123 4.572-.651 9.148-1.609 13.617l-1.324 6.178-.022.21c0 3.309 2.691 6 6 6h7v-2h7.125l-1.465-12.457c-.41-3.484-.631-7.034-.657-10.55l-2 .014c.026 3.589.251 7.213.67 10.771l1.202 10.222h-4.875v-22h-2v24h-5c-2.172 0-3.945-1.74-3.999-3.899l1.3-6.068c.987-4.606 1.53-9.321 1.654-14.032h2.045v-2h-4v-2h4v-2h-2.119c-.212-4.039-.732-8.082-1.579-12.032l-.972-4.533c.65.358 1.389.564 2.17.564h6.5v16h2v-11h1c1.381 0 2.666-.407 3.752-1.1-.694 3.644-1.197 7.34-1.475 11.025zm-12.271-17.075c0-.551.449-1 1-1h7c.551 0 1 .449 1 1s-.449 1-1 1h-1v-1zm8 5h-1v-2h1c1.654 0 3-1.346 3-3s-1.346-3-3-3h-7c-1.636 0-2.965 1.317-2.995 2.945-.776-.156-1.432-.668-1.768-1.393.626-2.048 2.513-3.552 4.763-3.552h7c2.732 0 4.953 2.205 4.993 4.927l-.462 2.157c-.794 1.716-2.52 2.916-4.531 2.916z" data-original="#000000" class="active-path" data-old_color="#000000" style="fill:#03081e"/><path d="m59.879 23c-.834 0-1.618.325-2.207.914l-2.672 2.672-2.672-2.672c-.589-.589-1.373-.914-2.207-.914-1.721 0-3.121 1.4-3.121 3.121v5.758c0 1.721 1.4 3.121 3.121 3.121.834 0 1.618-.324 2.207-.914l2.672-2.672 2.672 2.672c.589.59 1.373.914 2.207.914 1.721 0 3.121-1.4 3.121-3.121v-5.758c0-1.721-1.4-3.121-3.121-3.121zm-4.879 8c-1.105 0-2-.895-2-2s.895-2 2-2 2 .895 2 2-.895 2-2 2z" fill="#f0bc5e" data-original="#F0BC5E" class="" style="fill:#FFD133" data-old_color="#f0bc5e"/><path d="m55 32c-1.654 0-3-1.346-3-3s1.346-3 3-3 3 1.346 3 3-1.346 3-3 3zm0-4c-.551 0-1 .449-1 1s.449 1 1 1 1-.449 1-1-.449-1-1-1z" data-original="#000000" class="active-path" data-old_color="#000000" style="fill:#03081e"/><path d="m5 57h15v2h-15z" data-original="#000000" class="active-path" data-old_color="#000000" style="fill:#03081e"/><path d="m41 50c0-2.757-2.243-5-5-5h-34v2c1.654 0 3 1.346 3 3s-1.346 3-3 3v2c.01 0 .018-.003.028-.003-.636.839-1.028 1.872-1.028 3.003 0 2.757 2.243 5 5 5h34v-2c-1.654 0-3-1.346-3-3s1.346-3 3-3v-2h-.026c.635-.838 1.026-1.87 1.026-3zm-5-3c1.654 0 3 1.346 3 3s-1.346 3-3 3h-30c-.01 0-.018.003-.028.003.444-.585.775-1.258.927-2.003h13.101v-2h-13.112c-.151-.737-.454-1.42-.89-2zm-.888 10h-13.112v2h13.112c.151.737.454 1.42.89 2h-30.002c-1.654 0-3-1.346-3-3s1.346-3 3-3h30.002c-.436.58-.739 1.263-.89 2z" data-original="#000000" class="active-path" data-old_color="#000000" style="fill:#03081e"/><path d="m22 49h15v2h-15z" data-original="#000000" class="active-path" data-old_color="#000000" style="fill:#03081e"/><path d="m41 20.229-20-5.263-20 5.263v5.542l4 1.053v6.644l.36.301c.049.041 1.228 1.017 3.302 2.115l.937-1.768c-1.245-.659-2.137-1.27-2.599-1.609v-5.157l3 .789v5.861h2v-5.334l9 2.368 14-3.684v5.116c-1.59 1.028-7.489 4.534-14 4.534-2.584 0-5.168-.431-7.679-1.281l-.642 1.895c2.718.919 5.518 1.386 8.321 1.386 8.226 0 15.285-4.975 15.581-5.187l.419-.298v-6.691l4-1.053zm-31 5.842-7-1.842v-1.932l7 1.842zm10 2.632-8-2.105v-1.853l.139-.042 7.861 2.068zm-4.188-5.102 5.475-1.643-.574-1.916-8.609 2.583-6.174-1.625 15.07-3.966 15.07 3.966-15.07 3.966zm23.188.628-17 4.474v-1.932l17-4.474z" data-original="#000000" class="active-path" data-old_color="#000000" style="fill:#03081e"/><path d="m14 43h-6v-7c0-1.654 1.346-3 3-3s3 1.346 3 3z" fill="#f0bc5e" data-original="#F0BC5E" class="" style="fill:#FFD133" data-old_color="#f0bc5e"/><path d="m34 7h2v2h-2z" data-original="#000000" class="active-path" data-old_color="#000000" style="fill:#03081e"/><path d="m32 9h2v2h-2z" data-original="#000000" class="active-path" data-old_color="#000000" style="fill:#03081e"/><path d="m34 11h2v2h-2z" data-original="#000000" class="active-path" data-old_color="#000000" style="fill:#03081e"/><path d="m36 9h2v2h-2z" data-original="#000000" class="active-path" data-old_color="#000000" style="fill:#03081e"/><path d="m3 10h2v2h-2z" data-original="#000000" class="active-path" data-old_color="#000000" style="fill:#03081e"/><path d="m1 12h2v2h-2z" data-original="#000000" class="active-path" data-old_color="#000000" style="fill:#03081e"/><path d="m3 14h2v2h-2z" data-original="#000000" class="active-path" data-old_color="#000000" style="fill:#03081e"/><path d="m5 12h2v2h-2z" data-original="#000000" class="active-path" data-old_color="#000000" style="fill:#03081e"/><path d="m37 37h2v2h-2z" data-original="#000000" class="active-path" data-old_color="#000000" style="fill:#03081e"/><path d="m35 39h2v2h-2z" data-original="#000000" class="active-path" data-old_color="#000000" style="fill:#03081e"/><path d="m37 41h2v2h-2z" data-original="#000000" class="active-path" data-old_color="#000000" style="fill:#03081e"/><path d="m39 39h2v2h-2z" data-original="#000000" class="active-path" data-old_color="#000000" style="fill:#03081e"/></g> </svg>
