<?xml version="1.0"?>
<svg xmlns="http://www.w3.org/2000/svg" xmlns:xlink="http://www.w3.org/1999/xlink" version="1.1" id="Capa_1" x="0px" y="0px" viewBox="0 0 496 496" style="enable-background:new 0 0 496 496;" xml:space="preserve" width="512px" height="512px" class=""><g><g>
	<path style="fill:#FFD133" d="M395.264,76.984C360.056,34.856,307.2,8,248,8c-59.064,0-111.816,26.744-147.024,68.704L104,80   l24,24h2.192C158.056,69.832,200.472,48,248,48s89.944,21.832,117.808,56H368l24-24L395.264,76.984z" data-original="#F0BC5E" class="active-path" data-old_color="#F0BC5E"/>
	<path style="fill:#FFD133" d="M464,296c0-14.168-4.664-27.216-12.456-37.824C435.592,263.432,424,278.288,424,296   s11.592,32.568,27.544,37.824C459.336,323.216,464,310.168,464,296z" data-original="#F0BC5E" class="active-path" data-old_color="#F0BC5E"/>
	<path style="fill:#FFD133" d="M32,296c0-14.168,4.664-27.216,12.456-37.824C60.408,263.432,72,278.288,72,296   s-11.592,32.568-27.544,37.824C36.664,323.216,32,310.168,32,296z" data-original="#F0BC5E" class="active-path" data-old_color="#F0BC5E"/>
	<path style="fill:#FFD133" d="M336,296H160v-96h176V296z" data-original="#F0BC5E" class="active-path" data-old_color="#F0BC5E"/>
</g><path d="M472,296c0-31.272-20.08-57.88-48-67.8V200c0-20.552-3.688-40.536-10.584-59.64l22.88-8.32l-3.152-7.704  C402.248,48.808,329.576,0,248,0S93.752,48.808,62.848,124.336l-3.152,7.704l22.88,8.32C75.688,159.464,72,179.448,72,200v28.2  c-27.92,9.92-48,36.528-48,67.8c0,39.08,31.32,70.92,70.168,71.904C98.56,372.832,104.888,376,112,376c2.816,0,5.488-0.576,8-1.472  V464c0,17.648,14.352,32,32,32h224v-16c-8.824,0-16-7.176-16-16s7.176-16,16-16v-8v-8v-57.472c2.512,0.896,5.184,1.472,8,1.472  c7.112,0,13.44-3.168,17.832-8.096C440.68,366.92,472,335.08,472,296z M248,16c72.264,0,136.936,41.624,167.008,106.76  l-22.632,8.224C365.856,75.464,310,40,248,40s-117.856,35.464-144.384,90.984l-22.632-8.224C111.064,57.624,175.736,16,248,16z   M88,200c0-18.672,3.352-36.832,9.608-54.176l14.68,5.336l2.952-7.008C137.8,90.6,189.912,56,248,56s110.2,34.6,132.76,88.152  l2.952,7.008l14.68-5.336C404.648,163.168,408,181.328,408,200v24.472c-2.032-0.224-4.088-0.328-6.168-0.376  C397.44,219.168,391.112,216,384,216c-2.816,0-5.488,0.576-8,1.472V160H152c-17.648,0-32,14.352-32,32v25.472  c-2.512-0.896-5.184-1.472-8-1.472c-7.112,0-13.44,3.168-17.832,8.096c-2.072,0.056-4.136,0.152-6.168,0.376V200z M112,360  c-4.408,0-8-3.592-8-8v-16H88v15.36c-27.096-3.904-48-27.208-48-55.36s20.904-51.456,48-55.36V320h16v-80c0-4.408,3.592-8,8-8  s8,3.592,8,8v112C120,356.408,116.408,360,112,360z M348.296,480H152c-8.824,0-16-7.176-16-16s7.176-16,16-16h196.296  c-2.736,4.712-4.296,10.176-4.296,16S345.56,475.288,348.296,480z M152,432c-5.856,0-11.272,1.696-16,4.448V352V240v-48  c0-8.824,7.176-16,16-16h208v64v112v80H152z M408,351.36V336h-16v16c0,4.408-3.592,8-8,8s-8-3.592-8-8V240c0-4.408,3.592-8,8-8  s8,3.592,8,8v80h16v-79.36c27.096,3.904,48,27.208,48,55.36S435.096,347.456,408,351.36z" data-original="#000000" class="" data-old_color="#000000" style="fill:#03081e"/><path d="M240,369.472c-2.512-0.896-5.184-1.472-8-1.472c-13.232,0-24,10.768-24,24s10.768,24,24,24s24-10.768,24-24v-64h32v-16h-48  V369.472z M232,400c-4.408,0-8-3.592-8-8s3.592-8,8-8s8,3.592,8,8S236.408,400,232,400z" data-original="#000000" class="" data-old_color="#000000" style="fill:#03081e"/></g> </svg>
