<?xml version="1.0"?>
<svg xmlns="http://www.w3.org/2000/svg" id="Layer_35" enable-background="new 0 0 64 64" height="512px" viewBox="0 0 64 64" width="512px" class=""><g><path d="m51.205 4.945c-.663-.883-1.958-1.19-2.935-.698l-2.305 1.152c-1.973.988-4.49.694-6.185-.718-2.849-2.373-6.461-3.681-10.169-3.681h-.883c-7.57 0-13.728 6.158-13.728 13.728v12.272h1.141c-.083-.321-.141-.653-.141-1 0-2.209 1.791-4 4-4v-2.597c0-1.519.69-2.956 1.877-3.904l3.123-2.499 2.382 1.588c2.359 1.573 5.131 2.412 7.966 2.412h1.486c1.689 0 3.318-.294 4.835-.836.007-.003.014.002.014.002 1.425.906 2.317 2.489 2.317 4.219v1.615c2.209 0 4 1.791 4 4 0 .347-.058.679-.141 1h1.141v-14.987c1.153-1.493 2.035-3.202 2.576-5.051.203-.696.068-1.431-.371-2.017z" fill="#f0bc5e" data-original="#F0BC5E" class="" data-old_color="#f0bc5e" style="fill:#FFD133"/><path d="m35 57-1-7-2-2-2 2-1 7s1 1 3 1 3-1 3-1z" fill="#f0bc5e" data-original="#F0BC5E" class="" data-old_color="#f0bc5e" style="fill:#FFD133"/><circle cx="38" cy="23" r="1" data-original="#000000" class="active-path" style="fill:#03081E" data-old_color="#000000"/><circle cx="26" cy="23" r="1" data-original="#000000" class="active-path" style="fill:#03081E" data-old_color="#000000"/><path d="m36 32h-2c0 1.103-.897 2-2 2s-2-.897-2-2h-2c0 2.206 1.794 4 4 4s4-1.794 4-4z" data-original="#000000" class="active-path" style="fill:#03081E" data-old_color="#000000"/><path d="m26 28c2.757 0 5-2.243 5-5 0-.342-.035-.677-.101-1h2.202c-.066.323-.101.658-.101 1 0 2.757 2.243 5 5 5s5-2.243 5-5-2.243-5-5-5c-1.627 0-3.061.793-3.974 2h-4.051c-.914-1.207-2.348-2-3.974-2-2.757 0-5 2.243-5 5s2.242 5 4.999 5zm12-8c1.654 0 3 1.346 3 3s-1.346 3-3 3-3-1.346-3-3 1.346-3 3-3zm-12 0c1.654 0 3 1.346 3 3s-1.346 3-3 3-3-1.346-3-3 1.346-3 3-3z" data-original="#000000" class="active-path" style="fill:#03081E" data-old_color="#000000"/><path d="m49.123 47.289-10.259-4.198c-1.133-.463-1.864-1.553-1.864-2.777v-.718c3.077-2.126 5.427-5.126 6.759-8.597h.241c2.757 0 5-2.243 5-5 0-2.414-1.721-4.434-4-4.899v-.716c0-2.064-1.04-3.957-2.707-5.012l-.446-.335-.514.183c-1.443.518-2.957.78-4.499.78h-1.486c-2.646 0-5.209-.776-7.411-2.244l-2.991-1.994-3.695 2.956c-1.43 1.145-2.251 2.853-2.251 4.685v1.698c-2.279.465-4 2.484-4 4.899 0 2.757 2.243 5 5 5h.241c1.332 3.471 3.682 6.47 6.759 8.597v.718c0 1.224-.731 2.313-1.864 2.776l-10.259 4.197c-6 2.455-9.877 8.23-9.877 14.712v1h54v-1c0-6.482-3.877-12.257-9.877-14.711zm-17.123 2.125 5.511 5.512 2.509-9.201 2.682 1.097-1.864 4.349c-1.517 3.541-4.986 5.829-8.838 5.829s-7.321-2.288-8.838-5.828l-1.864-4.35 2.682-1.097 2.509 9.201zm6.155-4.452-1.667 6.112-3.026-3.025 3.95-3.456c.22.132.451.25.694.35zm8.845-18.962c0 1.512-1.129 2.754-2.586 2.958.379-1.482.586-3.025.586-4.607v-1.167c1.161.414 2 1.514 2 2.816zm-30 0c0-1.302.839-2.402 2-2.816v1.167c0 1.582.207 3.125.586 4.607-1.457-.204-2.586-1.446-2.586-2.958zm4-1.649v-1.351-3.597c0-1.222.547-2.36 1.501-3.124l2.553-2.042 1.774 1.183c2.532 1.688 5.478 2.58 8.521 2.58h1.486c1.597 0 3.168-.245 4.679-.728.938.755 1.486 1.889 1.486 3.113v2.615 1.351c0 7.023-4.406 13.247-11 15.591-6.594-2.344-11-8.567-11-15.591zm10.684 17.598.316.105.316-.105c.947-.316 1.855-.702 2.719-1.152.086.892.399 1.724.904 2.427l-3.939 3.447-3.94-3.447c.505-.704.818-1.536.904-2.427.864.449 1.773.836 2.72 1.152zm-5.097 2.643 3.95 3.456-3.026 3.025-1.667-6.112.048-.02c.244-.098.475-.216.695-.349zm22.413 16.408v-6h-2v6h-30v-6h-2v6h-7.965c.373-5.255 3.665-9.842 8.599-11.861l3.813-1.56 1.877 4.38c1.832 4.278 6.023 7.041 10.676 7.041s8.844-2.763 10.676-7.04l1.877-4.38 3.813 1.56c4.934 2.018 8.226 6.605 8.599 11.86z" data-original="#000000" class="active-path" style="fill:#03081E" data-old_color="#000000"/></g> </svg>
