<?xml version="1.0"?>
<svg xmlns="http://www.w3.org/2000/svg" id="Layer_35" enable-background="new 0 0 64 64" height="512px" viewBox="0 0 64 64" width="512px" class=""><g><path d="m10.63 51.206c1.318-1.253 2.877-2.277 4.625-2.992l10.259-4.197c1.504-.615 2.486-2.078 2.486-3.702v-1.249c-4.903-3.182-8-8.674-8-14.715v-3.351c0-2.209 1.791-4 4-4h8.528c2.741 0 5.246-1.549 6.472-4l1.998 1.598c1.897 1.518 3.002 3.817 3.002 6.247v3.506c0 6.041-3.097 11.533-8 14.715v1.249c0 1.624.982 3.087 2.485 3.702l10.259 4.197c1.754.718 3.317 1.746 4.638 3.005l.118-.546c.332-1.533.5-3.105.5-4.673 0-3.812-.996-7.569-2.879-10.869-1.388-2.43-2.121-5.268-2.121-8.208v-8.923c0-9.374-7.626-17-17-17s-17 7.626-17 17v8.924c0 2.913-.75 5.782-2.17 8.295-1.971 3.488-2.946 7.461-2.819 11.489.041 1.302.209 2.634.501 3.959z" fill="#f0bc5e" data-original="#F0BC5E" class="active-path" data-old_color="#f0bc5e" style="fill:#FFD133"/><path d="m32 48-2.489 2.987-1.52 11.013h8.018l-1.52-11.013z" fill="#f0bc5e" data-original="#F0BC5E" class="active-path" data-old_color="#f0bc5e" style="fill:#FFD133"/><path d="m36 32h-2c0 1.103-.897 2-2 2s-2-.897-2-2h-2c0 2.206 1.794 4 4 4s4-1.794 4-4z" data-original="#000000" class="" data-old_color="#000000" style="fill:#03081e"/><path d="m32 7v-2c-3.693 0-7.225 1.579-9.689 4.333l1.49 1.334c2.085-2.33 5.074-3.667 8.199-3.667z" data-original="#000000" class="" data-old_color="#000000" style="fill:#03081e"/><path d="m22.471 12.501-1.73-1.002c-.399.689-.736 1.419-1 2.168l1.886.666c.222-.633.507-1.249.844-1.832z" data-original="#000000" class="" data-old_color="#000000" style="fill:#03081e"/><path d="m49.123 47.288-10.259-4.197c-1.132-.463-1.864-1.553-1.864-2.777v-.718c4.921-3.401 8-9.039 8-15.246v-3.506c0-2.749-1.231-5.311-3.378-7.028l-2.963-2.37-.553 1.106c-1.064 2.127-3.201 3.448-5.578 3.448h-8.528c-2.757 0-5 2.243-5 5v3.351c0 6.206 3.079 11.845 8 15.246v.718c0 1.224-.732 2.313-1.864 2.776l-10.259 4.197c-6 2.455-9.877 8.23-9.877 14.712v1h54v-1c0-6.482-3.877-12.257-9.877-14.712zm-9.404-1.686-2.97 6.535-3.307-3.968 4.447-3.335c.074.035.142.078.218.109zm-18.719-24.602c0-1.654 1.346-3 3-3h8.528c2.728 0 5.216-1.316 6.743-3.503l1.103.882c1.668 1.335 2.626 3.328 2.626 5.466v2.155c0-1.654-1.346-3-3-3h-4c-1.302 0-2.402.839-2.816 2h-2.369c-.414-1.161-1.514-2-2.816-2h-4c-1.654 0-3 1.346-3 3v-2zm20 2v1c0 1.103-.897 2-2 2h-2c-1.103 0-2-.897-2-2v-1c0-.552.449-1 1-1h4c.551 0 1 .448 1 1zm-12 0v1c0 1.103-.897 2-2 2h-2c-1.103 0-2-.897-2-2v-1c0-.552.449-1 1-1h4c.551 0 1 .448 1 1zm-8 1.351v-.351c0 2.206 1.794 4 4 4h2c2.206 0 4-1.794 4-4h2c0 2.206 1.794 4 4 4h2c2.206 0 4-1.794 4-4v.351c0 7.023-4.406 13.247-11 15.592-6.594-2.345-11-8.569-11-15.592zm10.684 17.597.316.106.316-.105c.947-.316 1.855-.702 2.719-1.152.1 1.049.518 2.017 1.186 2.788l-4.221 3.165-4.222-3.166c.668-.771 1.086-1.739 1.186-2.788.864.45 1.773.837 2.72 1.152zm-5.79 2.994c.076-.031.144-.074.218-.109l4.447 3.335-3.307 3.968-2.97-6.535zm23.106 16.058v-6h-2v6h-30v-6h-2v6h-7.965c.373-5.255 3.665-9.842 8.599-11.86l6.795-2.78 4.319 9.504 5.252-6.303 5.251 6.302 4.32-9.504 6.795 2.78c4.934 2.019 8.226 6.605 8.599 11.86h-7.965z" data-original="#000000" class="" data-old_color="#000000" style="fill:#03081e"/></g> </svg>
