<?xml version="1.0"?>
<svg xmlns="http://www.w3.org/2000/svg" height="512px" viewBox="0 0 496 496" width="512px" class=""><g><path d="m240 256h-160v-23.855469c0-17.769531 11.929688-33.578125 29.007812-38.472656l26.992188-7.703125v-2.136719c-9.96875-7.511719-16-19.328125-16-31.832031v-16c0-11.175781 4.726562-21.929688 12.976562-29.496094 8.230469-7.542968 19.335938-11.328125 30.582032-10.351562 20.433594 1.777344 36.441406 20.007812 36.441406 41.503906v14.34375c0 12.503906-6.03125 24.320312-16 31.832031v2.136719l26.984375 7.703125c17.085937 4.886719 29.015625 20.703125 29.015625 38.472656zm0 0" fill="#f0bc5e" data-original="#F0BC5E" class="active-path" style="fill:#FFD133" data-old_color="#f0bc5e"/><path d="m416 320h-160v-128h160zm0 0" fill="#f0bc5e" data-original="#F0BC5E" class="active-path" style="fill:#FFD133" data-old_color="#f0bc5e"/><path d="m456 112h-8v-112h-400v112h-8c-22.054688 0-40 17.945312-40 40v256c0 22.054688 17.945312 40 40 40h104v32h-32v16h272v-16h-32v-32h104c22.054688 0 40-17.945312 40-40v-256c0-22.054688-17.945312-40-40-40zm-392-32h368v256h-368zm368-64v48h-368v-48zm-392 112h8v224h400v-224h8c13.230469 0 24 10.769531 24 24v216h-464v-216c0-13.230469 10.769531-24 24-24zm296 352h-176v-32h176zm120-48h-416c-13.230469 0-24-10.769531-24-24v-24h464v24c0 13.230469-10.769531 24-24 24zm0 0" data-original="#000000" class="" data-old_color="#000000" style="fill:#03081e"/><path d="m48 400h16v16h-16zm0 0" data-original="#000000" class="" data-old_color="#000000" style="fill:#03081e"/><path d="m80 400h16v16h-16zm0 0" data-original="#000000" class="" data-old_color="#000000" style="fill:#03081e"/><path d="m112 400h16v16h-16zm0 0" data-original="#000000" class="" data-old_color="#000000" style="fill:#03081e"/><path d="m80 32h16v16h-16zm0 0" data-original="#000000" class="" data-old_color="#000000" style="fill:#03081e"/><path d="m112 32h16v16h-16zm0 0" data-original="#000000" class="" data-old_color="#000000" style="fill:#03081e"/><path d="m144 32h16v16h-16zm0 0" data-original="#000000" class="" data-old_color="#000000" style="fill:#03081e"/><path d="m80 272h160v16h-160zm0 0" data-original="#000000" class="" data-old_color="#000000" style="fill:#03081e"/><path d="m80 304h160v16h-160zm0 0" data-original="#000000" class="" data-old_color="#000000" style="fill:#03081e"/><path d="m256 96h160v16h-160zm0 0" data-original="#000000" class="" data-old_color="#000000" style="fill:#03081e"/><path d="m256 128h160v16h-160zm0 0" data-original="#000000" class="" data-old_color="#000000" style="fill:#03081e"/><path d="m256 160h112v16h-112zm0 0" data-original="#000000" class="" data-old_color="#000000" style="fill:#03081e"/></g> </svg>
